# xmcd CD database file
#
# Track frame offsets:
#	150
#	17670
#	29982
#	46612
#	64975
#	81127
#	114050
#
# Disc length: 1912 seconds
#
# Revision: 0
# Processed by: cddbd v1.5.1PL0 Copyright (c) Steve Scherf et al.
# Submitted via: CDex 1.51
#
DISCID=50077607
DTITLE=KIRORO - 帰る場所
DYEAR=2005
DGENRE=JPop
TTITLE0=南の風
TTITLE1=紅芋娘
TTITLE2=かーこ
TTITLE3=魚が空を仰ぐ時
TTITLE4=サンゴの唄
TTITLE5=帰る場所
TTITLE6=CDエキストラ
EXTD=YEAR: 2005
EXTT0=
EXTT1=
EXTT2=
EXTT3=
EXTT4=
EXTT5=
EXTT6=
PLAYORDER=
